<?xml version="1.0" encoding="UTF-8"?>
<svg width="60px" height="60px" viewBox="0 0 60 60" version="1.1" xmlns="http://www.w3.org/2000/svg" xmlns:xlink="http://www.w3.org/1999/xlink">
    <!-- Generator: Sketch 47.1 (45422) - http://www.bohemiancoding.com/sketch -->
    <title>icon_toolbar_zhanyejia</title>
    <desc>Created with Sketch.</desc>
    <defs></defs>
    <g id="个人中心" stroke="none" stroke-width="1" fill="none" fill-rule="evenodd">
        <g id="icon_toolbar_zhanyejia" fill="#4A4A4A">
            <g id="tab">
                <path d="M43.6363636,26.8888889 L43.6363636,15.2222222 L16.3636364,15.2222222 L16.3636364,26.8888889 C16.3636364,28.0542222 15.3861818,29 14.1818182,29 C12.9774545,29 12,28.0542222 12,26.8888889 L12,13.1111111 C12,11.9457778 12.9774545,11 14.1818182,11 L45.8181818,11 C47.0225455,11 48,11.9457778 48,13.1111111 L48,26.8888889 C48,28.0542222 47.0225455,29 45.8181818,29 C44.6138182,29 43.6363636,28.0542222 43.6363636,26.8888889 Z" id="Fill-1"></path>
                <path d="M11.3809524,46.7777778 L48.6190476,46.7777778 L48.6190476,35.2222222 L37.7488095,35.2222222 C36.624,38.3329444 33.5792381,40.5 30,40.5 C26.4207619,40.5 23.376,38.3329444 22.2511905,35.2222222 L11.3809524,35.2222222 L11.3809524,46.7777778 Z M9.19047619,51 C7.98133333,51 7,50.0542222 7,48.8888889 L7,33.1111111 C7,31.9457778 7.98133333,31 9.19047619,31 L24.0035714,31 C25.1371429,31 26.0834286,31.8328333 26.1852857,32.9211111 C26.3649048,34.8348333 28.0044762,36.2777778 30,36.2777778 C31.9955238,36.2777778 33.6350952,34.8348333 33.8147143,32.9211111 C33.9165714,31.8328333 34.8628571,31 35.9964286,31 L50.8095238,31 C52.0186667,31 53,31.9457778 53,33.1111111 L53,48.8888889 C53,50.0542222 52.0186667,51 50.8095238,51 L9.19047619,51 Z" id="Fill-3"></path>
            </g>
        </g>
        <g id="切图" transform="translate(-291.000000, -530.000000)"></g>
    </g>
</svg>