<?xml version="1.0" encoding="UTF-8"?>
<svg width="60px" height="60px" viewBox="0 0 60 60" version="1.1" xmlns="http://www.w3.org/2000/svg" xmlns:xlink="http://www.w3.org/1999/xlink">
    <!-- Generator: Sketch 47.1 (45422) - http://www.bohemiancoding.com/sketch -->
    <title>icon/home_star selected</title>
    <desc>Created with Sketch.</desc>
    <defs></defs>
    <g id="保之星_产品首页" stroke="none" stroke-width="1" fill="none" fill-rule="evenodd">
        <g id="icon/home_star-selected" stroke-width="4" stroke="#FFA312">
            <g id="icon/home_star">
                <g id="star" transform="translate(8.000000, 9.000000)">
                    <path d="M39.9456746,12.7985586 L32.9377243,11.7637466 C31.3970771,11.5359335 30.0634959,10.5532483 29.3758087,9.13424302 L26.2413229,2.68018238 C24.5069075,-0.893394126 19.49363,-0.893394126 17.7592145,2.68018238 L14.6247288,9.13424302 C13.9351419,10.5532483 12.6034604,11.5359335 11.0628131,11.7637466 L4.05296315,12.7985586 C0.173799564,13.3719526 -1.37254674,18.2158767 1.43329293,20.9978992 L6.5054608,26.0213709 C7.61867816,27.1256852 8.12779464,28.7165156 7.86563765,30.276456 L6.66693431,37.3714823 C6.00584276,41.2964315 10.0616774,44.2908222 13.5305083,42.4374276 L19.7994798,39.0878029 C21.1767538,38.3503063 22.8237836,38.3503063 24.2010577,39.0878029 L30.4700292,42.4374276 C33.9388601,44.2908222 37.9946947,41.2964315 37.3317035,37.3714823 L36.1348998,30.276456 C35.8708431,28.7165156 36.3799596,27.1256852 37.4950767,26.0213709 L42.5672445,20.9978992 C45.3730842,18.2158767 43.8248382,13.3719526 39.9456746,12.7985586" id="Fill-1"></path>
                    <path d="M15,26 C16.2347233,28.6666667 18.4013899,30 21.5,30 C24.5986101,30 26.7652767,28.6666667 28,26" id="Path-6" stroke-linecap="round" stroke-linejoin="round"></path>
                </g>
            </g>
        </g>
        <g id="切图" transform="translate(-84.000000, -66.000000)"></g>
    </g>
</svg>