<?xml version="1.0" encoding="UTF-8"?>
<svg width="60px" height="60px" viewBox="0 0 60 60" version="1.1" xmlns="http://www.w3.org/2000/svg" xmlns:xlink="http://www.w3.org/1999/xlink">
    <!-- Generator: Sketch 47.1 (45422) - http://www.bohemiancoding.com/sketch -->
    <title>icon_toolbar_mine_press</title>
    <desc>Created with Sketch.</desc>
    <defs></defs>
    <g id="个人中心" stroke="none" stroke-width="1" fill="none" fill-rule="evenodd">
        <g id="icon_toolbar_mine_press"></g>
        <g id="切图" transform="translate(-391.000000, -621.000000)">
            <g id="tool-bar" transform="translate(391.000000, 621.000000)"></g>
            <g id="tab-copy-4" transform="translate(391.000000, 621.000000)" fill="#FFA312">
                <path d="M31.0669394,49.8525526 C32.2457915,49.8525526 33.2020939,50.8077533 33.2020939,51.9866053 C33.2020939,53.1665591 32.2457915,54.1217598 31.0669394,54.1217598 L10.1340527,54.1217598 C8.95520067,54.1217598 8,53.1665591 8,51.9866053 C8,41.188541 13.4590765,31.9362051 21.1568702,28.1726924 C18.6504324,26.0772003 17.0507192,22.9295551 17.0507192,19.4150336 C17.0507192,13.1208451 22.1715643,8 28.4657528,8 C34.7599413,8 39.8807864,13.1208451 39.8807864,19.4150336 C39.8807864,25.7092221 34.7599413,30.8300673 28.4657528,30.8300673 C28.0217553,30.8300673 27.5865716,30.7992188 27.1557948,30.7496409 C19.3533367,31.7555212 13.129659,39.7827324 12.3507352,49.8525526 L31.0669394,49.8525526 Z M21.4576427,19.4150336 C21.4576427,23.1036286 24.322143,26.1278799 27.9413289,26.3967022 C28.2310841,26.3823797 28.5208394,26.3691589 28.8138998,26.3691589 C28.8954278,26.3691589 28.972549,26.3845832 29.0529754,26.393397 C32.6424146,26.0937262 35.4738629,23.081594 35.4738629,19.4150336 C35.4738629,15.5501617 32.3306247,12.4069235 28.4657528,12.4069235 C24.6019826,12.4069235 21.4576427,15.5501617 21.4576427,19.4150336 Z M51.7509451,40.1693298 L47.9874324,43.7565655 C47.7924261,43.942758 47.7042876,44.2137838 47.7527637,44.479301 L48.689235,49.5935357 C48.8104254,50.2534725 48.1130297,50.7602687 47.522502,50.4407667 L42.9481154,47.9695844 C42.7101415,47.8417836 42.4247932,47.8417836 42.1879211,47.9695844 L37.6135345,50.4407667 C37.0230067,50.7602687 36.3256111,50.2534725 36.4468015,49.5935357 L37.3832727,44.479301 C37.4317489,44.2137838 37.3436104,43.942758 37.148604,43.7565655 L33.3850914,40.1693298 C32.899228,39.7066028 33.1647452,38.886915 33.8301906,38.7976748 L38.9840877,38.1079913 C39.2507066,38.0727359 39.48207,37.9041711 39.5988535,37.6617903 L41.8463845,32.9739254 C42.1372415,32.3679734 42.998795,32.3679734 43.289652,32.9739254 L45.5371829,37.6617903 C45.6539664,37.9041711 45.8853299,38.0727359 46.1519488,38.1079913 L51.3047441,38.7976748 C51.9712913,38.886915 52.2368084,39.7066028 51.7509451,40.1693298 Z" id="Combined-Shape"></path>
            </g>
        </g>
    </g>
</svg>