<?xml version="1.0" encoding="UTF-8"?>
<svg width="60px" height="60px" viewBox="0 0 60 60" version="1.1" xmlns="http://www.w3.org/2000/svg" xmlns:xlink="http://www.w3.org/1999/xlink">
    <!-- Generator: Sketch 47.1 (45422) - http://www.bohemiancoding.com/sketch -->
    <title>icon_toolbar_product</title>
    <desc>Created with Sketch.</desc>
    <defs></defs>
    <g id="个人中心" stroke="none" stroke-width="1" fill="none" fill-rule="evenodd">
        <g id="icon_toolbar_product" fill="#4A4A4A">
            <g id="tab">
                <path d="M45.952381,17.8205128 C44.7432381,17.8205128 43.7619048,16.8326154 43.7619048,15.6153846 L43.7619048,13.4102564 L16.3809524,13.4102564 L16.3809524,15.6153846 C16.3809524,16.8326154 15.399619,17.8205128 14.1904762,17.8205128 C12.9813333,17.8205128 12,16.8326154 12,15.6153846 L12,11.2051282 C12,9.98789744 12.9813333,9 14.1904762,9 L45.952381,9 C47.1615238,9 48.1428571,9.98789744 48.1428571,11.2051282 L48.1428571,15.6153846 C48.1428571,16.8326154 47.1615238,17.8205128 45.952381,17.8205128" id="Fill-1"></path>
                <path d="M14.1190476,50.8205128 C12.9099048,50.8205128 12,49.8326154 12,48.6153846 L12,44.2051282 C12,42.9878974 12.9099048,42 14.1190476,42 C15.3281905,42 16,42.9878974 16,44.2051282 L16,46.8369667 L44,46.8369667 L44,43.8369667 C44,42.6197359 44.6718095,42 45.8809524,42 C47.0900952,42 48.0714286,42.9878974 48.0714286,44.2051282 L48.0714286,48.6153846 C48.0714286,49.8326154 47.0900952,50.8205128 45.8809524,50.8205128 L14.1190476,50.8205128 Z" id="Fill-4"></path>
                <path d="M11,35.9742487 L49,35.9742487 L49,23.9742487 L11,23.9742487 L11,35.9742487 Z M9.19047619,39.8461538 C7.98133333,39.8461538 7,38.8582564 7,37.6410256 L7,22.2051282 C7,20.9867949 7.98133333,20 9.19047619,20 L50.8095238,20 C52.0186667,20 53,20.9867949 53,22.2051282 L53,37.6410256 C53,38.8582564 52.0186667,39.8461538 50.8095238,39.8461538 L9.19047619,39.8461538 Z" id="Fill-6"></path>
            </g>
        </g>
        <g id="切图" transform="translate(-182.000000, -530.000000)"></g>
    </g>
</svg>